<?xml version="1.0" encoding="utf-8" standalone="no"?>
<!DOCTYPE svg PUBLIC "-//W3C//DTD SVG 1.1//EN"
  "http://www.w3.org/Graphics/SVG/1.1/DTD/svg11.dtd">
<svg xmlns:xlink="http://www.w3.org/1999/xlink" width="590.4pt" height="432pt" viewBox="0 0 590.4 432" xmlns="http://www.w3.org/2000/svg" version="1.1">
 <metadata>
  <rdf:RDF xmlns:dc="http://purl.org/dc/elements/1.1/" xmlns:cc="http://creativecommons.org/ns#" xmlns:rdf="http://www.w3.org/1999/02/22-rdf-syntax-ns#">
   <cc:Work>
    <dc:type rdf:resource="http://purl.org/dc/dcmitype/StillImage"/>
    <dc:date>2026-02-24T18:21:03.474814</dc:date>
    <dc:format>image/svg+xml</dc:format>
    <dc:creator>
     <cc:Agent>
      <dc:title>Matplotlib v3.5.1, https://matplotlib.org/</dc:title>
     </cc:Agent>
    </dc:creator>
   </cc:Work>
  </rdf:RDF>
 </metadata>
 <defs>
  <style type="text/css">*{stroke-linejoin: round; stroke-linecap: butt}</style>
 </defs>
 <g id="figure_1">
  <g id="patch_1">
   <path d="M 0 432 
L 590.4 432 
L 590.4 0 
L 0 0 
z
" style="fill: #ffffff"/>
  </g>
  <g id="axes_1">
   <g id="patch_2">
    <path d="M 236.280415 390.04 
L 247.847585 390.04 
L 247.847585 25.44 
L 236.280415 25.44 
z
" style="fill: #ffffff"/>
   </g>
   <g id="patch_3">
    <path d="M 244.881816 42.03984 
L 246.543375 47.089145 
L 244.946475 47.083005 
L 244.903932 58.148317 
L 244.735837 58.14767 
L 244.778381 47.082359 
L 243.181481 47.076219 
z
" clip-path="url(#pd2645832be)" style="fill: #ff0000; opacity: 0.9; stroke: #ff0000; stroke-linejoin: miter"/>
   </g>
   <g id="patch_4">
    <path d="M 246.16059 70.265889 
L 243.935272 65.438445 
L 245.522499 65.262837 
L 244.736347 58.157236 
L 244.903423 58.138751 
L 245.689576 65.244352 
L 247.276802 65.068743 
z
" clip-path="url(#pd2645832be)" style="fill: #0000ff; opacity: 0.9; stroke: #0000ff; stroke-linejoin: miter"/>
   </g>
   <g id="patch_5">
    <path d="M 244.879313 42.047608 
L 246.54081 47.096932 
L 244.94391 47.090773 
L 244.901226 58.157556 
L 244.733131 58.156908 
L 244.775816 47.090125 
L 243.178916 47.083965 
z
" clip-path="url(#pd2645832be)" style="fill: #ff0000; opacity: 0.9; stroke: #ff0000; stroke-linejoin: miter"/>
   </g>
   <g id="patch_6">
    <path d="M 246.157888 70.27319 
L 243.932485 65.445786 
L 245.519708 65.270149 
L 244.73364 58.166476 
L 244.900716 58.147988 
L 245.686784 65.251661 
L 247.274008 65.076024 
z
" clip-path="url(#pd2645832be)" style="fill: #0000ff; opacity: 0.9; stroke: #0000ff; stroke-linejoin: miter"/>
   </g>
   <g id="patch_7">
    <path d="M 244.875967 42.045505 
L 246.537215 47.094911 
L 244.940316 47.088673 
L 244.897088 58.155175 
L 244.728993 58.154519 
L 244.772221 47.088017 
L 243.175322 47.081779 
z
" clip-path="url(#pd2645832be)" style="fill: #ff0000; opacity: 0.9; stroke: #ff0000; stroke-linejoin: miter"/>
   </g>
   <g id="patch_8">
    <path d="M 246.154075 70.271205 
L 243.928561 65.443852 
L 245.51578 65.268179 
L 244.729503 58.164093 
L 244.896578 58.145601 
L 245.682856 65.249687 
L 247.270075 65.074014 
z
" clip-path="url(#pd2645832be)" style="fill: #0000ff; opacity: 0.9; stroke: #0000ff; stroke-linejoin: miter"/>
   </g>
   <g id="patch_9">
    <path d="M 244.874484 42.03892 
L 246.535581 47.088376 
L 244.938682 47.08209 
L 244.895127 58.147462 
L 244.727033 58.1468 
L 244.770587 47.081429 
L 243.173688 47.075143 
z
" clip-path="url(#pd2645832be)" style="fill: #ff0000; opacity: 0.9; stroke: #ff0000; stroke-linejoin: miter"/>
   </g>
   <g id="patch_10">
    <path d="M 246.151645 70.265028 
L 243.926383 65.437559 
L 245.513611 65.261969 
L 244.727542 58.156372 
L 244.894618 58.137889 
L 245.680688 65.243485 
L 247.267917 65.067895 
z
" clip-path="url(#pd2645832be)" style="fill: #0000ff; opacity: 0.9; stroke: #0000ff; stroke-linejoin: miter"/>
   </g>
   <g id="patch_11">
    <path d="M 244.863434 42.040217 
L 246.524229 47.089773 
L 244.92733 47.083391 
L 244.883114 58.148269 
L 244.715019 58.147598 
L 244.759235 47.08272 
L 243.162337 47.076338 
z
" clip-path="url(#pd2645832be)" style="fill: #ff0000; opacity: 0.9; stroke: #ff0000; stroke-linejoin: miter"/>
   </g>
   <g id="patch_12">
    <path d="M 246.140093 70.266516 
L 243.914679 65.439117 
L 245.501902 65.263477 
L 244.715528 58.157178 
L 244.882605 58.138689 
L 245.668979 65.244988 
L 247.256202 65.069348 
z
" clip-path="url(#pd2645832be)" style="fill: #0000ff; opacity: 0.9; stroke: #0000ff; stroke-linejoin: miter"/>
   </g>
   <g id="patch_13">
    <path d="M 244.836314 42.05813 
L 246.496314 47.107947 
L 244.899416 47.101314 
L 244.853451 58.16774 
L 244.685356 58.167042 
L 244.731321 47.100616 
L 243.134423 47.093984 
z
" clip-path="url(#pd2645832be)" style="fill: #ff0000; opacity: 0.9; stroke: #ff0000; stroke-linejoin: miter"/>
   </g>
   <g id="patch_14">
    <path d="M 246.11351 70.28394 
L 243.886795 65.457141 
L 245.473971 65.281073 
L 244.685868 58.176658 
L 244.852939 58.158124 
L 245.641042 65.262539 
L 247.228218 65.086472 
z
" clip-path="url(#pd2645832be)" style="fill: #0000ff; opacity: 0.9; stroke: #0000ff; stroke-linejoin: miter"/>
   </g>
   <g id="patch_15">
    <path d="M 244.811915 42.078376 
L 246.470733 47.128581 
L 244.873837 47.121575 
L 244.825274 58.189921 
L 244.65718 58.189184 
L 244.705742 47.120837 
L 243.108846 47.113831 
z
" clip-path="url(#pd2645832be)" style="fill: #ff0000; opacity: 0.9; stroke: #ff0000; stroke-linejoin: miter"/>
   </g>
   <g id="patch_16">
    <path d="M 246.089291 70.303604 
L 243.86091 65.477574 
L 245.448025 65.300958 
L 244.657695 58.198848 
L 244.824759 58.180257 
L 245.615089 65.282367 
L 247.202204 65.105751 
z
" clip-path="url(#pd2645832be)" style="fill: #0000ff; opacity: 0.9; stroke: #0000ff; stroke-linejoin: miter"/>
   </g>
   <g id="patch_17">
    <path d="M 244.818191 42.082111 
L 246.476452 47.1325 
L 244.879557 47.125317 
L 244.829769 58.194832 
L 244.661675 58.194075 
L 244.711462 47.124561 
L 243.114567 47.117379 
z
" clip-path="url(#pd2645832be)" style="fill: #ff0000; opacity: 0.9; stroke: #ff0000; stroke-linejoin: miter"/>
   </g>
   <g id="patch_18">
    <path d="M 246.094886 70.307009 
L 243.866006 65.481209 
L 245.453103 65.304429 
L 244.66219 58.203758 
L 244.829253 58.185149 
L 245.620165 65.285821 
L 247.207262 65.109041 
z
" clip-path="url(#pd2645832be)" style="fill: #0000ff; opacity: 0.9; stroke: #0000ff; stroke-linejoin: miter"/>
   </g>
   <g id="patch_19">
    <path d="M 244.874879 42.049884 
L 246.534386 47.099862 
L 244.937489 47.093074 
L 244.890445 58.15932 
L 244.722351 58.158606 
L 244.769394 47.092359 
L 243.172497 47.085571 
z
" clip-path="url(#pd2645832be)" style="fill: #ff0000; opacity: 0.9; stroke: #ff0000; stroke-linejoin: miter"/>
   </g>
   <g id="patch_20">
    <path d="M 246.148297 70.275913 
L 243.922469 65.448704 
L 245.509677 65.272928 
L 244.722861 58.168215 
L 244.889936 58.149712 
L 245.676751 65.254425 
L 247.263959 65.078649 
z
" clip-path="url(#pd2645832be)" style="fill: #0000ff; opacity: 0.9; stroke: #0000ff; stroke-linejoin: miter"/>
   </g>
   <g id="patch_21">
    <path d="M 244.925911 42.030071 
L 246.586493 47.079696 
L 244.989595 47.073248 
L 244.944913 58.138145 
L 244.776818 58.137466 
L 244.8215 47.072569 
L 243.224602 47.06612 
z
" clip-path="url(#pd2645832be)" style="fill: #ff0000; opacity: 0.9; stroke: #ff0000; stroke-linejoin: miter"/>
   </g>
   <g id="patch_22">
    <path d="M 246.196579 70.256596 
L 243.973265 65.428229 
L 245.560565 65.25328 
L 244.777324 58.147013 
L 244.944408 58.128598 
L 245.727649 65.234864 
L 247.314948 65.059915 
z
" clip-path="url(#pd2645832be)" style="fill: #0000ff; opacity: 0.9; stroke: #0000ff; stroke-linejoin: miter"/>
   </g>
   <g id="patch_23">
    <path d="M 244.931062 42.021664 
L 246.5923 47.071074 
L 244.995401 47.064833 
L 244.952157 58.129584 
L 244.784063 58.128927 
L 244.827306 47.064176 
L 243.230407 47.057935 
z
" clip-path="url(#pd2645832be)" style="fill: #ff0000; opacity: 0.9; stroke: #ff0000; stroke-linejoin: miter"/>
   </g>
   <g id="patch_24">
    <path d="M 246.20314 70.248158 
L 243.9801 65.419665 
L 245.56741 65.244806 
L 244.784567 58.138459 
L 244.951653 58.120053 
L 245.734495 65.226399 
L 247.321804 65.05154 
z
" clip-path="url(#pd2645832be)" style="fill: #0000ff; opacity: 0.9; stroke: #0000ff; stroke-linejoin: miter"/>
   </g>
   <g id="patch_25">
    <path d="M 244.888662 42.012727 
L 246.549672 47.062212 
L 244.952773 47.055899 
L 244.909035 58.119605 
L 244.74094 58.118941 
L 244.784678 47.055234 
L 243.187779 47.048921 
z
" clip-path="url(#pd2645832be)" style="fill: #ff0000; opacity: 0.9; stroke: #ff0000; stroke-linejoin: miter"/>
   </g>
   <g id="patch_26">
    <path d="M 246.164852 70.239414 
L 243.939963 65.411772 
L 245.527205 65.236305 
L 244.741448 58.128508 
L 244.908526 58.110038 
L 245.694283 65.217835 
L 247.281525 65.042367 
z
" clip-path="url(#pd2645832be)" style="fill: #0000ff; opacity: 0.9; stroke: #0000ff; stroke-linejoin: miter"/>
   </g>
   <g id="patch_27">
    <path d="M 244.834123 42.014448 
L 246.49432 47.0642 
L 244.897422 47.05763 
L 244.851898 58.12212 
L 244.683804 58.121429 
L 244.729327 47.056938 
L 243.132429 47.050368 
z
" clip-path="url(#pd2645832be)" style="fill: #ff0000; opacity: 0.9; stroke: #ff0000; stroke-linejoin: miter"/>
   </g>
   <g id="patch_28">
    <path d="M 246.113238 70.240804 
L 243.886128 65.414187 
L 245.473289 65.237989 
L 244.684316 58.131048 
L 244.851386 58.112501 
L 245.640359 65.219442 
L 247.22752 65.043244 
z
" clip-path="url(#pd2645832be)" style="fill: #0000ff; opacity: 0.9; stroke: #0000ff; stroke-linejoin: miter"/>
   </g>
   <g id="matplotlib.axis_1">
    <g id="xtick_1">
     <g id="line2d_1">
      <path d="M 240.255909 390.04 
L 240.255909 25.44 
" clip-path="url(#pd2645832be)" style="fill: none; stroke: #b0b0b0; stroke-opacity: 0.25; stroke-width: 0.8; stroke-linecap: square"/>
     </g>
     <g id="line2d_2">
      <defs>
       <path id="mad20278aac" d="M 0 0 
L 0 3.5 
" style="stroke: #000000; stroke-width: 0.8"/>
      </defs>
      <g>
       <use xlink:href="#mad20278aac" x="240.255909" y="390.04" style="stroke: #000000; stroke-width: 0.8"/>
      </g>
     </g>
     <g id="text_1">
      <!-- 0.000 -->
      <g transform="translate(225.941847 404.638438)scale(0.1 -0.1)">
       <defs>
        <path id="DejaVuSans-30" d="M 2034 4250 
Q 1547 4250 1301 3770 
Q 1056 3291 1056 2328 
Q 1056 1369 1301 889 
Q 1547 409 2034 409 
Q 2525 409 2770 889 
Q 3016 1369 3016 2328 
Q 3016 3291 2770 3770 
Q 2525 4250 2034 4250 
z
M 2034 4750 
Q 2819 4750 3233 4129 
Q 3647 3509 3647 2328 
Q 3647 1150 3233 529 
Q 2819 -91 2034 -91 
Q 1250 -91 836 529 
Q 422 1150 422 2328 
Q 422 3509 836 4129 
Q 1250 4750 2034 4750 
z
" transform="scale(0.015625)"/>
        <path id="DejaVuSans-2e" d="M 684 794 
L 1344 794 
L 1344 0 
L 684 0 
L 684 794 
z
" transform="scale(0.015625)"/>
       </defs>
       <use xlink:href="#DejaVuSans-30"/>
       <use xlink:href="#DejaVuSans-2e" x="63.623047"/>
       <use xlink:href="#DejaVuSans-30" x="95.410156"/>
       <use xlink:href="#DejaVuSans-30" x="159.033203"/>
       <use xlink:href="#DejaVuSans-30" x="222.65625"/>
      </g>
     </g>
    </g>
    <g id="xtick_2">
     <g id="line2d_3">
      <path d="M 244.458308 390.04 
L 244.458308 25.44 
" clip-path="url(#pd2645832be)" style="fill: none; stroke: #b0b0b0; stroke-opacity: 0.25; stroke-width: 0.8; stroke-linecap: square"/>
     </g>
     <g id="line2d_4">
      <g>
       <use xlink:href="#mad20278aac" x="244.458308" y="390.04" style="stroke: #000000; stroke-width: 0.8"/>
      </g>
     </g>
     <g id="text_2">
      <!-- 0.025 -->
      <g transform="translate(230.144246 404.638438)scale(0.1 -0.1)">
       <defs>
        <path id="DejaVuSans-32" d="M 1228 531 
L 3431 531 
L 3431 0 
L 469 0 
L 469 531 
Q 828 903 1448 1529 
Q 2069 2156 2228 2338 
Q 2531 2678 2651 2914 
Q 2772 3150 2772 3378 
Q 2772 3750 2511 3984 
Q 2250 4219 1831 4219 
Q 1534 4219 1204 4116 
Q 875 4013 500 3803 
L 500 4441 
Q 881 4594 1212 4672 
Q 1544 4750 1819 4750 
Q 2544 4750 2975 4387 
Q 3406 4025 3406 3419 
Q 3406 3131 3298 2873 
Q 3191 2616 2906 2266 
Q 2828 2175 2409 1742 
Q 1991 1309 1228 531 
z
" transform="scale(0.015625)"/>
        <path id="DejaVuSans-35" d="M 691 4666 
L 3169 4666 
L 3169 4134 
L 1269 4134 
L 1269 2991 
Q 1406 3038 1543 3061 
Q 1681 3084 1819 3084 
Q 2600 3084 3056 2656 
Q 3513 2228 3513 1497 
Q 3513 744 3044 326 
Q 2575 -91 1722 -91 
Q 1428 -91 1123 -41 
Q 819 9 494 109 
L 494 744 
Q 775 591 1075 516 
Q 1375 441 1709 441 
Q 2250 441 2565 725 
Q 2881 1009 2881 1497 
Q 2881 1984 2565 2268 
Q 2250 2553 1709 2553 
Q 1456 2553 1204 2497 
Q 953 2441 691 2322 
L 691 4666 
z
" transform="scale(0.015625)"/>
       </defs>
       <use xlink:href="#DejaVuSans-30"/>
       <use xlink:href="#DejaVuSans-2e" x="63.623047"/>
       <use xlink:href="#DejaVuSans-30" x="95.410156"/>
       <use xlink:href="#DejaVuSans-32" x="159.033203"/>
       <use xlink:href="#DejaVuSans-35" x="222.65625"/>
      </g>
     </g>
    </g>
    <g id="text_3">
     <!-- Y [m] -->
     <g transform="translate(228.649156 418.316562)scale(0.1 -0.1)">
      <defs>
       <path id="DejaVuSans-59" d="M -13 4666 
L 666 4666 
L 1959 2747 
L 3244 4666 
L 3922 4666 
L 2272 2222 
L 2272 0 
L 1638 0 
L 1638 2222 
L -13 4666 
z
" transform="scale(0.015625)"/>
       <path id="DejaVuSans-20" transform="scale(0.015625)"/>
       <path id="DejaVuSans-5b" d="M 550 4863 
L 1875 4863 
L 1875 4416 
L 1125 4416 
L 1125 -397 
L 1875 -397 
L 1875 -844 
L 550 -844 
L 550 4863 
z
" transform="scale(0.015625)"/>
       <path id="DejaVuSans-6d" d="M 3328 2828 
Q 3544 3216 3844 3400 
Q 4144 3584 4550 3584 
Q 5097 3584 5394 3201 
Q 5691 2819 5691 2113 
L 5691 0 
L 5113 0 
L 5113 2094 
Q 5113 2597 4934 2840 
Q 4756 3084 4391 3084 
Q 3944 3084 3684 2787 
Q 3425 2491 3425 1978 
L 3425 0 
L 2847 0 
L 2847 2094 
Q 2847 2600 2669 2842 
Q 2491 3084 2119 3084 
Q 1678 3084 1418 2786 
Q 1159 2488 1159 1978 
L 1159 0 
L 581 0 
L 581 3500 
L 1159 3500 
L 1159 2956 
Q 1356 3278 1631 3431 
Q 1906 3584 2284 3584 
Q 2666 3584 2933 3390 
Q 3200 3197 3328 2828 
z
" transform="scale(0.015625)"/>
       <path id="DejaVuSans-5d" d="M 1947 4863 
L 1947 -844 
L 622 -844 
L 622 -397 
L 1369 -397 
L 1369 4416 
L 622 4416 
L 622 4863 
L 1947 4863 
z
" transform="scale(0.015625)"/>
      </defs>
      <use xlink:href="#DejaVuSans-59"/>
      <use xlink:href="#DejaVuSans-20" x="61.083984"/>
      <use xlink:href="#DejaVuSans-5b" x="92.871094"/>
      <use xlink:href="#DejaVuSans-6d" x="131.884766"/>
      <use xlink:href="#DejaVuSans-5d" x="229.296875"/>
     </g>
    </g>
   </g>
   <g id="matplotlib.axis_2">
    <g id="ytick_1">
     <g id="line2d_5">
      <path d="M 236.280415 367.734807 
L 247.847585 367.734807 
" clip-path="url(#pd2645832be)" style="fill: none; stroke: #b0b0b0; stroke-opacity: 0.25; stroke-width: 0.8; stroke-linecap: square"/>
     </g>
     <g id="line2d_6">
      <defs>
       <path id="meefa9d189c" d="M 0 0 
L -3.5 0 
" style="stroke: #000000; stroke-width: 0.8"/>
      </defs>
      <g>
       <use xlink:href="#meefa9d189c" x="236.280415" y="367.734807" style="stroke: #000000; stroke-width: 0.8"/>
      </g>
     </g>
     <g id="text_4">
      <!-- −1.50 -->
      <g transform="translate(198.635103 371.534026)scale(0.1 -0.1)">
       <defs>
        <path id="DejaVuSans-2212" d="M 678 2272 
L 4684 2272 
L 4684 1741 
L 678 1741 
L 678 2272 
z
" transform="scale(0.015625)"/>
        <path id="DejaVuSans-31" d="M 794 531 
L 1825 531 
L 1825 4091 
L 703 3866 
L 703 4441 
L 1819 4666 
L 2450 4666 
L 2450 531 
L 3481 531 
L 3481 0 
L 794 0 
L 794 531 
z
" transform="scale(0.015625)"/>
       </defs>
       <use xlink:href="#DejaVuSans-2212"/>
       <use xlink:href="#DejaVuSans-31" x="83.789062"/>
       <use xlink:href="#DejaVuSans-2e" x="147.412109"/>
       <use xlink:href="#DejaVuSans-35" x="179.199219"/>
       <use xlink:href="#DejaVuSans-30" x="242.822266"/>
      </g>
     </g>
    </g>
    <g id="ytick_2">
     <g id="line2d_7">
      <path d="M 236.280415 325.710818 
L 247.847585 325.710818 
" clip-path="url(#pd2645832be)" style="fill: none; stroke: #b0b0b0; stroke-opacity: 0.25; stroke-width: 0.8; stroke-linecap: square"/>
     </g>
     <g id="line2d_8">
      <g>
       <use xlink:href="#meefa9d189c" x="236.280415" y="325.710818" style="stroke: #000000; stroke-width: 0.8"/>
      </g>
     </g>
     <g id="text_5">
      <!-- −1.25 -->
      <g transform="translate(198.635103 329.510037)scale(0.1 -0.1)">
       <use xlink:href="#DejaVuSans-2212"/>
       <use xlink:href="#DejaVuSans-31" x="83.789062"/>
       <use xlink:href="#DejaVuSans-2e" x="147.412109"/>
       <use xlink:href="#DejaVuSans-32" x="179.199219"/>
       <use xlink:href="#DejaVuSans-35" x="242.822266"/>
      </g>
     </g>
    </g>
    <g id="ytick_3">
     <g id="line2d_9">
      <path d="M 236.280415 283.686829 
L 247.847585 283.686829 
" clip-path="url(#pd2645832be)" style="fill: none; stroke: #b0b0b0; stroke-opacity: 0.25; stroke-width: 0.8; stroke-linecap: square"/>
     </g>
     <g id="line2d_10">
      <g>
       <use xlink:href="#meefa9d189c" x="236.280415" y="283.686829" style="stroke: #000000; stroke-width: 0.8"/>
      </g>
     </g>
     <g id="text_6">
      <!-- −1.00 -->
      <g transform="translate(198.635103 287.486048)scale(0.1 -0.1)">
       <use xlink:href="#DejaVuSans-2212"/>
       <use xlink:href="#DejaVuSans-31" x="83.789062"/>
       <use xlink:href="#DejaVuSans-2e" x="147.412109"/>
       <use xlink:href="#DejaVuSans-30" x="179.199219"/>
       <use xlink:href="#DejaVuSans-30" x="242.822266"/>
      </g>
     </g>
    </g>
    <g id="ytick_4">
     <g id="line2d_11">
      <path d="M 236.280415 241.662841 
L 247.847585 241.662841 
" clip-path="url(#pd2645832be)" style="fill: none; stroke: #b0b0b0; stroke-opacity: 0.25; stroke-width: 0.8; stroke-linecap: square"/>
     </g>
     <g id="line2d_12">
      <g>
       <use xlink:href="#meefa9d189c" x="236.280415" y="241.662841" style="stroke: #000000; stroke-width: 0.8"/>
      </g>
     </g>
     <g id="text_7">
      <!-- −0.75 -->
      <g transform="translate(198.635103 245.462059)scale(0.1 -0.1)">
       <defs>
        <path id="DejaVuSans-37" d="M 525 4666 
L 3525 4666 
L 3525 4397 
L 1831 0 
L 1172 0 
L 2766 4134 
L 525 4134 
L 525 4666 
z
" transform="scale(0.015625)"/>
       </defs>
       <use xlink:href="#DejaVuSans-2212"/>
       <use xlink:href="#DejaVuSans-30" x="83.789062"/>
       <use xlink:href="#DejaVuSans-2e" x="147.412109"/>
       <use xlink:href="#DejaVuSans-37" x="179.199219"/>
       <use xlink:href="#DejaVuSans-35" x="242.822266"/>
      </g>
     </g>
    </g>
    <g id="ytick_5">
     <g id="line2d_13">
      <path d="M 236.280415 199.638852 
L 247.847585 199.638852 
" clip-path="url(#pd2645832be)" style="fill: none; stroke: #b0b0b0; stroke-opacity: 0.25; stroke-width: 0.8; stroke-linecap: square"/>
     </g>
     <g id="line2d_14">
      <g>
       <use xlink:href="#meefa9d189c" x="236.280415" y="199.638852" style="stroke: #000000; stroke-width: 0.8"/>
      </g>
     </g>
     <g id="text_8">
      <!-- −0.50 -->
      <g transform="translate(198.635103 203.43807)scale(0.1 -0.1)">
       <use xlink:href="#DejaVuSans-2212"/>
       <use xlink:href="#DejaVuSans-30" x="83.789062"/>
       <use xlink:href="#DejaVuSans-2e" x="147.412109"/>
       <use xlink:href="#DejaVuSans-35" x="179.199219"/>
       <use xlink:href="#DejaVuSans-30" x="242.822266"/>
      </g>
     </g>
    </g>
    <g id="ytick_6">
     <g id="line2d_15">
      <path d="M 236.280415 157.614863 
L 247.847585 157.614863 
" clip-path="url(#pd2645832be)" style="fill: none; stroke: #b0b0b0; stroke-opacity: 0.25; stroke-width: 0.8; stroke-linecap: square"/>
     </g>
     <g id="line2d_16">
      <g>
       <use xlink:href="#meefa9d189c" x="236.280415" y="157.614863" style="stroke: #000000; stroke-width: 0.8"/>
      </g>
     </g>
     <g id="text_9">
      <!-- −0.25 -->
      <g transform="translate(198.635103 161.414082)scale(0.1 -0.1)">
       <use xlink:href="#DejaVuSans-2212"/>
       <use xlink:href="#DejaVuSans-30" x="83.789062"/>
       <use xlink:href="#DejaVuSans-2e" x="147.412109"/>
       <use xlink:href="#DejaVuSans-32" x="179.199219"/>
       <use xlink:href="#DejaVuSans-35" x="242.822266"/>
      </g>
     </g>
    </g>
    <g id="ytick_7">
     <g id="line2d_17">
      <path d="M 236.280415 115.590874 
L 247.847585 115.590874 
" clip-path="url(#pd2645832be)" style="fill: none; stroke: #b0b0b0; stroke-opacity: 0.25; stroke-width: 0.8; stroke-linecap: square"/>
     </g>
     <g id="line2d_18">
      <g>
       <use xlink:href="#meefa9d189c" x="236.280415" y="115.590874" style="stroke: #000000; stroke-width: 0.8"/>
      </g>
     </g>
     <g id="text_10">
      <!-- 0.00 -->
      <g transform="translate(207.01479 119.390093)scale(0.1 -0.1)">
       <use xlink:href="#DejaVuSans-30"/>
       <use xlink:href="#DejaVuSans-2e" x="63.623047"/>
       <use xlink:href="#DejaVuSans-30" x="95.410156"/>
       <use xlink:href="#DejaVuSans-30" x="159.033203"/>
      </g>
     </g>
    </g>
    <g id="ytick_8">
     <g id="line2d_19">
      <path d="M 236.280415 73.566885 
L 247.847585 73.566885 
" clip-path="url(#pd2645832be)" style="fill: none; stroke: #b0b0b0; stroke-opacity: 0.25; stroke-width: 0.8; stroke-linecap: square"/>
     </g>
     <g id="line2d_20">
      <g>
       <use xlink:href="#meefa9d189c" x="236.280415" y="73.566885" style="stroke: #000000; stroke-width: 0.8"/>
      </g>
     </g>
     <g id="text_11">
      <!-- 0.25 -->
      <g transform="translate(207.01479 77.366104)scale(0.1 -0.1)">
       <use xlink:href="#DejaVuSans-30"/>
       <use xlink:href="#DejaVuSans-2e" x="63.623047"/>
       <use xlink:href="#DejaVuSans-32" x="95.410156"/>
       <use xlink:href="#DejaVuSans-35" x="159.033203"/>
      </g>
     </g>
    </g>
    <g id="ytick_9">
     <g id="line2d_21">
      <path d="M 236.280415 31.542896 
L 247.847585 31.542896 
" clip-path="url(#pd2645832be)" style="fill: none; stroke: #b0b0b0; stroke-opacity: 0.25; stroke-width: 0.8; stroke-linecap: square"/>
     </g>
     <g id="line2d_22">
      <g>
       <use xlink:href="#meefa9d189c" x="236.280415" y="31.542896" style="stroke: #000000; stroke-width: 0.8"/>
      </g>
     </g>
     <g id="text_12">
      <!-- 0.50 -->
      <g transform="translate(207.01479 35.342115)scale(0.1 -0.1)">
       <use xlink:href="#DejaVuSans-30"/>
       <use xlink:href="#DejaVuSans-2e" x="63.623047"/>
       <use xlink:href="#DejaVuSans-35" x="95.410156"/>
       <use xlink:href="#DejaVuSans-30" x="159.033203"/>
      </g>
     </g>
    </g>
    <g id="text_13">
     <!-- X [m] -->
     <g transform="translate(192.555415 221.525937)rotate(-90)scale(0.1 -0.1)">
      <defs>
       <path id="DejaVuSans-58" d="M 403 4666 
L 1081 4666 
L 2241 2931 
L 3406 4666 
L 4084 4666 
L 2584 2425 
L 4184 0 
L 3506 0 
L 2194 1984 
L 872 0 
L 191 0 
L 1856 2491 
L 403 4666 
z
" transform="scale(0.015625)"/>
      </defs>
      <use xlink:href="#DejaVuSans-58"/>
      <use xlink:href="#DejaVuSans-20" x="68.505859"/>
      <use xlink:href="#DejaVuSans-5b" x="100.292969"/>
      <use xlink:href="#DejaVuSans-6d" x="139.306641"/>
      <use xlink:href="#DejaVuSans-5d" x="236.71875"/>
     </g>
    </g>
   </g>
   <g id="line2d_23">
    <path d="M 244.819885 58.147993 
L 244.819928 58.153703 
L 244.817178 58.157232 
L 244.814808 58.157904 
L 244.813041 58.154847 
L 244.810362 58.150704 
L 244.81108 58.147131 
L 244.808092 58.145671 
L 244.799067 58.147933 
L 244.784369 58.155141 
L 244.769404 58.167391 
L 244.754617 58.179481 
L 244.741227 58.189553 
L 244.735908 58.195313 
L 244.745722 58.194453 
L 244.776175 58.178857 
L 244.806398 58.158963 
L 244.837095 58.144246 
L 244.860866 58.137805 
L 244.872303 58.134541 
L 244.86811 58.129256 
L 244.849839 58.123235 
L 244.824987 58.119273 
L 244.797874 58.119386 
L 244.767851 58.121775 
" clip-path="url(#pd2645832be)" style="fill: none; stroke: #1f77b4; stroke-width: 2; stroke-linecap: square"/>
   </g>
   <g id="patch_29">
    <path d="M 236.280415 390.04 
L 236.280415 25.44 
" style="fill: none; stroke: #000000; stroke-width: 0.8; stroke-linejoin: miter; stroke-linecap: square"/>
   </g>
   <g id="patch_30">
    <path d="M 247.847585 390.04 
L 247.847585 25.44 
" style="fill: none; stroke: #000000; stroke-width: 0.8; stroke-linejoin: miter; stroke-linecap: square"/>
   </g>
   <g id="patch_31">
    <path d="M 236.280415 390.04 
L 247.847585 390.04 
" style="fill: none; stroke: #000000; stroke-width: 0.8; stroke-linejoin: miter; stroke-linecap: square"/>
   </g>
   <g id="patch_32">
    <path d="M 236.280415 25.44 
L 247.847585 25.44 
" style="fill: none; stroke: #000000; stroke-width: 0.8; stroke-linejoin: miter; stroke-linecap: square"/>
   </g>
   <g id="PathCollection_1">
    <defs>
     <path id="m1d7af28f36" d="M 0 2.44949 
C 0.649612 2.44949 1.272706 2.191396 1.732051 1.732051 
C 2.191396 1.272706 2.44949 0.649612 2.44949 0 
C 2.44949 -0.649612 2.191396 -1.272706 1.732051 -1.732051 
C 1.272706 -2.191396 0.649612 -2.44949 0 -2.44949 
C -0.649612 -2.44949 -1.272706 -2.191396 -1.732051 -1.732051 
C -2.191396 -1.272706 -2.44949 -0.649612 -2.44949 0 
C -2.44949 0.649612 -2.191396 1.272706 -1.732051 1.732051 
C -1.272706 2.191396 -0.649612 2.44949 0 2.44949 
z
" style="stroke: #ffa500"/>
    </defs>
    <g clip-path="url(#pd2645832be)">
     <use xlink:href="#m1d7af28f36" x="238.393087" y="246.335566" style="fill: #ffa500; stroke: #ffa500"/>
     <use xlink:href="#m1d7af28f36" x="239.892584" y="164.783241" style="fill: #ffa500; stroke: #ffa500"/>
     <use xlink:href="#m1d7af28f36" x="236.806196" y="373.467273" style="fill: #ffa500; stroke: #ffa500"/>
     <use xlink:href="#m1d7af28f36" x="240.255909" y="115.590874" style="fill: #ffa500; stroke: #ffa500"/>
    </g>
   </g>
   <g id="text_14">
    <!-- tag36h11:28 -->
    <g transform="translate(238.393087 246.335566)scale(0.08 -0.08)">
     <defs>
      <path id="DejaVuSans-74" d="M 1172 4494 
L 1172 3500 
L 2356 3500 
L 2356 3053 
L 1172 3053 
L 1172 1153 
Q 1172 725 1289 603 
Q 1406 481 1766 481 
L 2356 481 
L 2356 0 
L 1766 0 
Q 1100 0 847 248 
Q 594 497 594 1153 
L 594 3053 
L 172 3053 
L 172 3500 
L 594 3500 
L 594 4494 
L 1172 4494 
z
" transform="scale(0.015625)"/>
      <path id="DejaVuSans-61" d="M 2194 1759 
Q 1497 1759 1228 1600 
Q 959 1441 959 1056 
Q 959 750 1161 570 
Q 1363 391 1709 391 
Q 2188 391 2477 730 
Q 2766 1069 2766 1631 
L 2766 1759 
L 2194 1759 
z
M 3341 1997 
L 3341 0 
L 2766 0 
L 2766 531 
Q 2569 213 2275 61 
Q 1981 -91 1556 -91 
Q 1019 -91 701 211 
Q 384 513 384 1019 
Q 384 1609 779 1909 
Q 1175 2209 1959 2209 
L 2766 2209 
L 2766 2266 
Q 2766 2663 2505 2880 
Q 2244 3097 1772 3097 
Q 1472 3097 1187 3025 
Q 903 2953 641 2809 
L 641 3341 
Q 956 3463 1253 3523 
Q 1550 3584 1831 3584 
Q 2591 3584 2966 3190 
Q 3341 2797 3341 1997 
z
" transform="scale(0.015625)"/>
      <path id="DejaVuSans-67" d="M 2906 1791 
Q 2906 2416 2648 2759 
Q 2391 3103 1925 3103 
Q 1463 3103 1205 2759 
Q 947 2416 947 1791 
Q 947 1169 1205 825 
Q 1463 481 1925 481 
Q 2391 481 2648 825 
Q 2906 1169 2906 1791 
z
M 3481 434 
Q 3481 -459 3084 -895 
Q 2688 -1331 1869 -1331 
Q 1566 -1331 1297 -1286 
Q 1028 -1241 775 -1147 
L 775 -588 
Q 1028 -725 1275 -790 
Q 1522 -856 1778 -856 
Q 2344 -856 2625 -561 
Q 2906 -266 2906 331 
L 2906 616 
Q 2728 306 2450 153 
Q 2172 0 1784 0 
Q 1141 0 747 490 
Q 353 981 353 1791 
Q 353 2603 747 3093 
Q 1141 3584 1784 3584 
Q 2172 3584 2450 3431 
Q 2728 3278 2906 2969 
L 2906 3500 
L 3481 3500 
L 3481 434 
z
" transform="scale(0.015625)"/>
      <path id="DejaVuSans-33" d="M 2597 2516 
Q 3050 2419 3304 2112 
Q 3559 1806 3559 1356 
Q 3559 666 3084 287 
Q 2609 -91 1734 -91 
Q 1441 -91 1130 -33 
Q 819 25 488 141 
L 488 750 
Q 750 597 1062 519 
Q 1375 441 1716 441 
Q 2309 441 2620 675 
Q 2931 909 2931 1356 
Q 2931 1769 2642 2001 
Q 2353 2234 1838 2234 
L 1294 2234 
L 1294 2753 
L 1863 2753 
Q 2328 2753 2575 2939 
Q 2822 3125 2822 3475 
Q 2822 3834 2567 4026 
Q 2313 4219 1838 4219 
Q 1578 4219 1281 4162 
Q 984 4106 628 3988 
L 628 4550 
Q 988 4650 1302 4700 
Q 1616 4750 1894 4750 
Q 2613 4750 3031 4423 
Q 3450 4097 3450 3541 
Q 3450 3153 3228 2886 
Q 3006 2619 2597 2516 
z
" transform="scale(0.015625)"/>
      <path id="DejaVuSans-36" d="M 2113 2584 
Q 1688 2584 1439 2293 
Q 1191 2003 1191 1497 
Q 1191 994 1439 701 
Q 1688 409 2113 409 
Q 2538 409 2786 701 
Q 3034 994 3034 1497 
Q 3034 2003 2786 2293 
Q 2538 2584 2113 2584 
z
M 3366 4563 
L 3366 3988 
Q 3128 4100 2886 4159 
Q 2644 4219 2406 4219 
Q 1781 4219 1451 3797 
Q 1122 3375 1075 2522 
Q 1259 2794 1537 2939 
Q 1816 3084 2150 3084 
Q 2853 3084 3261 2657 
Q 3669 2231 3669 1497 
Q 3669 778 3244 343 
Q 2819 -91 2113 -91 
Q 1303 -91 875 529 
Q 447 1150 447 2328 
Q 447 3434 972 4092 
Q 1497 4750 2381 4750 
Q 2619 4750 2861 4703 
Q 3103 4656 3366 4563 
z
" transform="scale(0.015625)"/>
      <path id="DejaVuSans-68" d="M 3513 2113 
L 3513 0 
L 2938 0 
L 2938 2094 
Q 2938 2591 2744 2837 
Q 2550 3084 2163 3084 
Q 1697 3084 1428 2787 
Q 1159 2491 1159 1978 
L 1159 0 
L 581 0 
L 581 4863 
L 1159 4863 
L 1159 2956 
Q 1366 3272 1645 3428 
Q 1925 3584 2291 3584 
Q 2894 3584 3203 3211 
Q 3513 2838 3513 2113 
z
" transform="scale(0.015625)"/>
      <path id="DejaVuSans-3a" d="M 750 794 
L 1409 794 
L 1409 0 
L 750 0 
L 750 794 
z
M 750 3309 
L 1409 3309 
L 1409 2516 
L 750 2516 
L 750 3309 
z
" transform="scale(0.015625)"/>
      <path id="DejaVuSans-38" d="M 2034 2216 
Q 1584 2216 1326 1975 
Q 1069 1734 1069 1313 
Q 1069 891 1326 650 
Q 1584 409 2034 409 
Q 2484 409 2743 651 
Q 3003 894 3003 1313 
Q 3003 1734 2745 1975 
Q 2488 2216 2034 2216 
z
M 1403 2484 
Q 997 2584 770 2862 
Q 544 3141 544 3541 
Q 544 4100 942 4425 
Q 1341 4750 2034 4750 
Q 2731 4750 3128 4425 
Q 3525 4100 3525 3541 
Q 3525 3141 3298 2862 
Q 3072 2584 2669 2484 
Q 3125 2378 3379 2068 
Q 3634 1759 3634 1313 
Q 3634 634 3220 271 
Q 2806 -91 2034 -91 
Q 1263 -91 848 271 
Q 434 634 434 1313 
Q 434 1759 690 2068 
Q 947 2378 1403 2484 
z
M 1172 3481 
Q 1172 3119 1398 2916 
Q 1625 2713 2034 2713 
Q 2441 2713 2670 2916 
Q 2900 3119 2900 3481 
Q 2900 3844 2670 4047 
Q 2441 4250 2034 4250 
Q 1625 4250 1398 4047 
Q 1172 3844 1172 3481 
z
" transform="scale(0.015625)"/>
     </defs>
     <use xlink:href="#DejaVuSans-74"/>
     <use xlink:href="#DejaVuSans-61" x="39.208984"/>
     <use xlink:href="#DejaVuSans-67" x="100.488281"/>
     <use xlink:href="#DejaVuSans-33" x="163.964844"/>
     <use xlink:href="#DejaVuSans-36" x="227.587891"/>
     <use xlink:href="#DejaVuSans-68" x="291.210938"/>
     <use xlink:href="#DejaVuSans-31" x="354.589844"/>
     <use xlink:href="#DejaVuSans-31" x="418.212891"/>
     <use xlink:href="#DejaVuSans-3a" x="481.835938"/>
     <use xlink:href="#DejaVuSans-32" x="515.527344"/>
     <use xlink:href="#DejaVuSans-38" x="579.150391"/>
    </g>
   </g>
   <g id="text_15">
    <!-- tag36h11:31 -->
    <g transform="translate(239.892584 164.783241)scale(0.08 -0.08)">
     <use xlink:href="#DejaVuSans-74"/>
     <use xlink:href="#DejaVuSans-61" x="39.208984"/>
     <use xlink:href="#DejaVuSans-67" x="100.488281"/>
     <use xlink:href="#DejaVuSans-33" x="163.964844"/>
     <use xlink:href="#DejaVuSans-36" x="227.587891"/>
     <use xlink:href="#DejaVuSans-68" x="291.210938"/>
     <use xlink:href="#DejaVuSans-31" x="354.589844"/>
     <use xlink:href="#DejaVuSans-31" x="418.212891"/>
     <use xlink:href="#DejaVuSans-3a" x="481.835938"/>
     <use xlink:href="#DejaVuSans-33" x="515.527344"/>
     <use xlink:href="#DejaVuSans-31" x="579.150391"/>
    </g>
   </g>
   <g id="text_16">
    <!-- tag36h11:33 -->
    <g transform="translate(236.806196 373.467273)scale(0.08 -0.08)">
     <use xlink:href="#DejaVuSans-74"/>
     <use xlink:href="#DejaVuSans-61" x="39.208984"/>
     <use xlink:href="#DejaVuSans-67" x="100.488281"/>
     <use xlink:href="#DejaVuSans-33" x="163.964844"/>
     <use xlink:href="#DejaVuSans-36" x="227.587891"/>
     <use xlink:href="#DejaVuSans-68" x="291.210938"/>
     <use xlink:href="#DejaVuSans-31" x="354.589844"/>
     <use xlink:href="#DejaVuSans-31" x="418.212891"/>
     <use xlink:href="#DejaVuSans-3a" x="481.835938"/>
     <use xlink:href="#DejaVuSans-33" x="515.527344"/>
     <use xlink:href="#DejaVuSans-33" x="579.150391"/>
    </g>
   </g>
   <g id="text_17">
    <!-- tag36h11:4 -->
    <g transform="translate(240.255909 115.590874)scale(0.08 -0.08)">
     <defs>
      <path id="DejaVuSans-34" d="M 2419 4116 
L 825 1625 
L 2419 1625 
L 2419 4116 
z
M 2253 4666 
L 3047 4666 
L 3047 1625 
L 3713 1625 
L 3713 1100 
L 3047 1100 
L 3047 0 
L 2419 0 
L 2419 1100 
L 313 1100 
L 313 1709 
L 2253 4666 
z
" transform="scale(0.015625)"/>
     </defs>
     <use xlink:href="#DejaVuSans-74"/>
     <use xlink:href="#DejaVuSans-61" x="39.208984"/>
     <use xlink:href="#DejaVuSans-67" x="100.488281"/>
     <use xlink:href="#DejaVuSans-33" x="163.964844"/>
     <use xlink:href="#DejaVuSans-36" x="227.587891"/>
     <use xlink:href="#DejaVuSans-68" x="291.210938"/>
     <use xlink:href="#DejaVuSans-31" x="354.589844"/>
     <use xlink:href="#DejaVuSans-31" x="418.212891"/>
     <use xlink:href="#DejaVuSans-3a" x="481.835938"/>
     <use xlink:href="#DejaVuSans-34" x="515.527344"/>
    </g>
   </g>
   <g id="text_18">
    <!-- AprilTag Environment Reconstruction and Estimated Trajectory -->
    <g transform="translate(54.223688 19.44)scale(0.12 -0.12)">
     <defs>
      <path id="DejaVuSans-41" d="M 2188 4044 
L 1331 1722 
L 3047 1722 
L 2188 4044 
z
M 1831 4666 
L 2547 4666 
L 4325 0 
L 3669 0 
L 3244 1197 
L 1141 1197 
L 716 0 
L 50 0 
L 1831 4666 
z
" transform="scale(0.015625)"/>
      <path id="DejaVuSans-70" d="M 1159 525 
L 1159 -1331 
L 581 -1331 
L 581 3500 
L 1159 3500 
L 1159 2969 
Q 1341 3281 1617 3432 
Q 1894 3584 2278 3584 
Q 2916 3584 3314 3078 
Q 3713 2572 3713 1747 
Q 3713 922 3314 415 
Q 2916 -91 2278 -91 
Q 1894 -91 1617 61 
Q 1341 213 1159 525 
z
M 3116 1747 
Q 3116 2381 2855 2742 
Q 2594 3103 2138 3103 
Q 1681 3103 1420 2742 
Q 1159 2381 1159 1747 
Q 1159 1113 1420 752 
Q 1681 391 2138 391 
Q 2594 391 2855 752 
Q 3116 1113 3116 1747 
z
" transform="scale(0.015625)"/>
      <path id="DejaVuSans-72" d="M 2631 2963 
Q 2534 3019 2420 3045 
Q 2306 3072 2169 3072 
Q 1681 3072 1420 2755 
Q 1159 2438 1159 1844 
L 1159 0 
L 581 0 
L 581 3500 
L 1159 3500 
L 1159 2956 
Q 1341 3275 1631 3429 
Q 1922 3584 2338 3584 
Q 2397 3584 2469 3576 
Q 2541 3569 2628 3553 
L 2631 2963 
z
" transform="scale(0.015625)"/>
      <path id="DejaVuSans-69" d="M 603 3500 
L 1178 3500 
L 1178 0 
L 603 0 
L 603 3500 
z
M 603 4863 
L 1178 4863 
L 1178 4134 
L 603 4134 
L 603 4863 
z
" transform="scale(0.015625)"/>
      <path id="DejaVuSans-6c" d="M 603 4863 
L 1178 4863 
L 1178 0 
L 603 0 
L 603 4863 
z
" transform="scale(0.015625)"/>
      <path id="DejaVuSans-54" d="M -19 4666 
L 3928 4666 
L 3928 4134 
L 2272 4134 
L 2272 0 
L 1638 0 
L 1638 4134 
L -19 4134 
L -19 4666 
z
" transform="scale(0.015625)"/>
      <path id="DejaVuSans-45" d="M 628 4666 
L 3578 4666 
L 3578 4134 
L 1259 4134 
L 1259 2753 
L 3481 2753 
L 3481 2222 
L 1259 2222 
L 1259 531 
L 3634 531 
L 3634 0 
L 628 0 
L 628 4666 
z
" transform="scale(0.015625)"/>
      <path id="DejaVuSans-6e" d="M 3513 2113 
L 3513 0 
L 2938 0 
L 2938 2094 
Q 2938 2591 2744 2837 
Q 2550 3084 2163 3084 
Q 1697 3084 1428 2787 
Q 1159 2491 1159 1978 
L 1159 0 
L 581 0 
L 581 3500 
L 1159 3500 
L 1159 2956 
Q 1366 3272 1645 3428 
Q 1925 3584 2291 3584 
Q 2894 3584 3203 3211 
Q 3513 2838 3513 2113 
z
" transform="scale(0.015625)"/>
      <path id="DejaVuSans-76" d="M 191 3500 
L 800 3500 
L 1894 563 
L 2988 3500 
L 3597 3500 
L 2284 0 
L 1503 0 
L 191 3500 
z
" transform="scale(0.015625)"/>
      <path id="DejaVuSans-6f" d="M 1959 3097 
Q 1497 3097 1228 2736 
Q 959 2375 959 1747 
Q 959 1119 1226 758 
Q 1494 397 1959 397 
Q 2419 397 2687 759 
Q 2956 1122 2956 1747 
Q 2956 2369 2687 2733 
Q 2419 3097 1959 3097 
z
M 1959 3584 
Q 2709 3584 3137 3096 
Q 3566 2609 3566 1747 
Q 3566 888 3137 398 
Q 2709 -91 1959 -91 
Q 1206 -91 779 398 
Q 353 888 353 1747 
Q 353 2609 779 3096 
Q 1206 3584 1959 3584 
z
" transform="scale(0.015625)"/>
      <path id="DejaVuSans-65" d="M 3597 1894 
L 3597 1613 
L 953 1613 
Q 991 1019 1311 708 
Q 1631 397 2203 397 
Q 2534 397 2845 478 
Q 3156 559 3463 722 
L 3463 178 
Q 3153 47 2828 -22 
Q 2503 -91 2169 -91 
Q 1331 -91 842 396 
Q 353 884 353 1716 
Q 353 2575 817 3079 
Q 1281 3584 2069 3584 
Q 2775 3584 3186 3129 
Q 3597 2675 3597 1894 
z
M 3022 2063 
Q 3016 2534 2758 2815 
Q 2500 3097 2075 3097 
Q 1594 3097 1305 2825 
Q 1016 2553 972 2059 
L 3022 2063 
z
" transform="scale(0.015625)"/>
      <path id="DejaVuSans-52" d="M 2841 2188 
Q 3044 2119 3236 1894 
Q 3428 1669 3622 1275 
L 4263 0 
L 3584 0 
L 2988 1197 
Q 2756 1666 2539 1819 
Q 2322 1972 1947 1972 
L 1259 1972 
L 1259 0 
L 628 0 
L 628 4666 
L 2053 4666 
Q 2853 4666 3247 4331 
Q 3641 3997 3641 3322 
Q 3641 2881 3436 2590 
Q 3231 2300 2841 2188 
z
M 1259 4147 
L 1259 2491 
L 2053 2491 
Q 2509 2491 2742 2702 
Q 2975 2913 2975 3322 
Q 2975 3731 2742 3939 
Q 2509 4147 2053 4147 
L 1259 4147 
z
" transform="scale(0.015625)"/>
      <path id="DejaVuSans-63" d="M 3122 3366 
L 3122 2828 
Q 2878 2963 2633 3030 
Q 2388 3097 2138 3097 
Q 1578 3097 1268 2742 
Q 959 2388 959 1747 
Q 959 1106 1268 751 
Q 1578 397 2138 397 
Q 2388 397 2633 464 
Q 2878 531 3122 666 
L 3122 134 
Q 2881 22 2623 -34 
Q 2366 -91 2075 -91 
Q 1284 -91 818 406 
Q 353 903 353 1747 
Q 353 2603 823 3093 
Q 1294 3584 2113 3584 
Q 2378 3584 2631 3529 
Q 2884 3475 3122 3366 
z
" transform="scale(0.015625)"/>
      <path id="DejaVuSans-73" d="M 2834 3397 
L 2834 2853 
Q 2591 2978 2328 3040 
Q 2066 3103 1784 3103 
Q 1356 3103 1142 2972 
Q 928 2841 928 2578 
Q 928 2378 1081 2264 
Q 1234 2150 1697 2047 
L 1894 2003 
Q 2506 1872 2764 1633 
Q 3022 1394 3022 966 
Q 3022 478 2636 193 
Q 2250 -91 1575 -91 
Q 1294 -91 989 -36 
Q 684 19 347 128 
L 347 722 
Q 666 556 975 473 
Q 1284 391 1588 391 
Q 1994 391 2212 530 
Q 2431 669 2431 922 
Q 2431 1156 2273 1281 
Q 2116 1406 1581 1522 
L 1381 1569 
Q 847 1681 609 1914 
Q 372 2147 372 2553 
Q 372 3047 722 3315 
Q 1072 3584 1716 3584 
Q 2034 3584 2315 3537 
Q 2597 3491 2834 3397 
z
" transform="scale(0.015625)"/>
      <path id="DejaVuSans-75" d="M 544 1381 
L 544 3500 
L 1119 3500 
L 1119 1403 
Q 1119 906 1312 657 
Q 1506 409 1894 409 
Q 2359 409 2629 706 
Q 2900 1003 2900 1516 
L 2900 3500 
L 3475 3500 
L 3475 0 
L 2900 0 
L 2900 538 
Q 2691 219 2414 64 
Q 2138 -91 1772 -91 
Q 1169 -91 856 284 
Q 544 659 544 1381 
z
M 1991 3584 
L 1991 3584 
z
" transform="scale(0.015625)"/>
      <path id="DejaVuSans-64" d="M 2906 2969 
L 2906 4863 
L 3481 4863 
L 3481 0 
L 2906 0 
L 2906 525 
Q 2725 213 2448 61 
Q 2172 -91 1784 -91 
Q 1150 -91 751 415 
Q 353 922 353 1747 
Q 353 2572 751 3078 
Q 1150 3584 1784 3584 
Q 2172 3584 2448 3432 
Q 2725 3281 2906 2969 
z
M 947 1747 
Q 947 1113 1208 752 
Q 1469 391 1925 391 
Q 2381 391 2643 752 
Q 2906 1113 2906 1747 
Q 2906 2381 2643 2742 
Q 2381 3103 1925 3103 
Q 1469 3103 1208 2742 
Q 947 2381 947 1747 
z
" transform="scale(0.015625)"/>
      <path id="DejaVuSans-6a" d="M 603 3500 
L 1178 3500 
L 1178 -63 
Q 1178 -731 923 -1031 
Q 669 -1331 103 -1331 
L -116 -1331 
L -116 -844 
L 38 -844 
Q 366 -844 484 -692 
Q 603 -541 603 -63 
L 603 3500 
z
M 603 4863 
L 1178 4863 
L 1178 4134 
L 603 4134 
L 603 4863 
z
" transform="scale(0.015625)"/>
      <path id="DejaVuSans-79" d="M 2059 -325 
Q 1816 -950 1584 -1140 
Q 1353 -1331 966 -1331 
L 506 -1331 
L 506 -850 
L 844 -850 
Q 1081 -850 1212 -737 
Q 1344 -625 1503 -206 
L 1606 56 
L 191 3500 
L 800 3500 
L 1894 763 
L 2988 3500 
L 3597 3500 
L 2059 -325 
z
" transform="scale(0.015625)"/>
     </defs>
     <use xlink:href="#DejaVuSans-41"/>
     <use xlink:href="#DejaVuSans-70" x="68.408203"/>
     <use xlink:href="#DejaVuSans-72" x="131.884766"/>
     <use xlink:href="#DejaVuSans-69" x="172.998047"/>
     <use xlink:href="#DejaVuSans-6c" x="200.78125"/>
     <use xlink:href="#DejaVuSans-54" x="228.564453"/>
     <use xlink:href="#DejaVuSans-61" x="273.148438"/>
     <use xlink:href="#DejaVuSans-67" x="334.427734"/>
     <use xlink:href="#DejaVuSans-20" x="397.904297"/>
     <use xlink:href="#DejaVuSans-45" x="429.691406"/>
     <use xlink:href="#DejaVuSans-6e" x="492.875"/>
     <use xlink:href="#DejaVuSans-76" x="556.253906"/>
     <use xlink:href="#DejaVuSans-69" x="615.433594"/>
     <use xlink:href="#DejaVuSans-72" x="643.216797"/>
     <use xlink:href="#DejaVuSans-6f" x="682.080078"/>
     <use xlink:href="#DejaVuSans-6e" x="743.261719"/>
     <use xlink:href="#DejaVuSans-6d" x="806.640625"/>
     <use xlink:href="#DejaVuSans-65" x="904.052734"/>
     <use xlink:href="#DejaVuSans-6e" x="965.576172"/>
     <use xlink:href="#DejaVuSans-74" x="1028.955078"/>
     <use xlink:href="#DejaVuSans-20" x="1068.164062"/>
     <use xlink:href="#DejaVuSans-52" x="1099.951172"/>
     <use xlink:href="#DejaVuSans-65" x="1164.933594"/>
     <use xlink:href="#DejaVuSans-63" x="1226.457031"/>
     <use xlink:href="#DejaVuSans-6f" x="1281.4375"/>
     <use xlink:href="#DejaVuSans-6e" x="1342.619141"/>
     <use xlink:href="#DejaVuSans-73" x="1405.998047"/>
     <use xlink:href="#DejaVuSans-74" x="1458.097656"/>
     <use xlink:href="#DejaVuSans-72" x="1497.306641"/>
     <use xlink:href="#DejaVuSans-75" x="1538.419922"/>
     <use xlink:href="#DejaVuSans-63" x="1601.798828"/>
     <use xlink:href="#DejaVuSans-74" x="1656.779297"/>
     <use xlink:href="#DejaVuSans-69" x="1695.988281"/>
     <use xlink:href="#DejaVuSans-6f" x="1723.771484"/>
     <use xlink:href="#DejaVuSans-6e" x="1784.953125"/>
     <use xlink:href="#DejaVuSans-20" x="1848.332031"/>
     <use xlink:href="#DejaVuSans-61" x="1880.119141"/>
     <use xlink:href="#DejaVuSans-6e" x="1941.398438"/>
     <use xlink:href="#DejaVuSans-64" x="2004.777344"/>
     <use xlink:href="#DejaVuSans-20" x="2068.253906"/>
     <use xlink:href="#DejaVuSans-45" x="2100.041016"/>
     <use xlink:href="#DejaVuSans-73" x="2163.224609"/>
     <use xlink:href="#DejaVuSans-74" x="2215.324219"/>
     <use xlink:href="#DejaVuSans-69" x="2254.533203"/>
     <use xlink:href="#DejaVuSans-6d" x="2282.316406"/>
     <use xlink:href="#DejaVuSans-61" x="2379.728516"/>
     <use xlink:href="#DejaVuSans-74" x="2441.007812"/>
     <use xlink:href="#DejaVuSans-65" x="2480.216797"/>
     <use xlink:href="#DejaVuSans-64" x="2541.740234"/>
     <use xlink:href="#DejaVuSans-20" x="2605.216797"/>
     <use xlink:href="#DejaVuSans-54" x="2637.003906"/>
     <use xlink:href="#DejaVuSans-72" x="2683.337891"/>
     <use xlink:href="#DejaVuSans-61" x="2724.451172"/>
     <use xlink:href="#DejaVuSans-6a" x="2785.730469"/>
     <use xlink:href="#DejaVuSans-65" x="2813.513672"/>
     <use xlink:href="#DejaVuSans-63" x="2875.037109"/>
     <use xlink:href="#DejaVuSans-74" x="2930.017578"/>
     <use xlink:href="#DejaVuSans-6f" x="2969.226562"/>
     <use xlink:href="#DejaVuSans-72" x="3030.408203"/>
     <use xlink:href="#DejaVuSans-79" x="3071.521484"/>
    </g>
   </g>
   <g id="PathCollection_2">
    <defs>
     <path id="m3f64dd71d9" d="M 0 3 
C 0.795609 3 1.55874 2.683901 2.12132 2.12132 
C 2.683901 1.55874 3 0.795609 3 0 
C 3 -0.795609 2.683901 -1.55874 2.12132 -2.12132 
C 1.55874 -2.683901 0.795609 -3 0 -3 
C -0.795609 -3 -1.55874 -2.683901 -2.12132 -2.12132 
C -2.683901 -1.55874 -3 -0.795609 -3 0 
C -3 0.795609 -2.683901 1.55874 -2.12132 2.12132 
C -1.55874 2.683901 -0.795609 3 0 3 
z
" style="stroke: #008000"/>
    </defs>
    <g clip-path="url(#pd2645832be)">
     <use xlink:href="#m3f64dd71d9" x="244.819885" y="58.147993" style="fill: #008000; stroke: #008000"/>
    </g>
   </g>
   <g id="PathCollection_3">
    <defs>
     <path id="mae17549749" d="M 0 3 
C 0.795609 3 1.55874 2.683901 2.12132 2.12132 
C 2.683901 1.55874 3 0.795609 3 0 
C 3 -0.795609 2.683901 -1.55874 2.12132 -2.12132 
C 1.55874 -2.683901 0.795609 -3 0 -3 
C -0.795609 -3 -1.55874 -2.683901 -2.12132 -2.12132 
C -2.683901 -1.55874 -3 -0.795609 -3 0 
C -3 0.795609 -2.683901 1.55874 -2.12132 2.12132 
C -1.55874 2.683901 -0.795609 3 0 3 
z
" style="stroke: #ff0000"/>
    </defs>
    <g clip-path="url(#pd2645832be)">
     <use xlink:href="#mae17549749" x="244.767851" y="58.121775" style="fill: #ff0000; stroke: #ff0000"/>
    </g>
   </g>
   <g id="PathCollection_4">
    <defs>
     <path id="m9e9925cd0b" d="M 0 2.236068 
C 0.593012 2.236068 1.161816 2.000462 1.581139 1.581139 
C 2.000462 1.161816 2.236068 0.593012 2.236068 0 
C 2.236068 -0.593012 2.000462 -1.161816 1.581139 -1.581139 
C 1.161816 -2.000462 0.593012 -2.236068 0 -2.236068 
C -0.593012 -2.236068 -1.161816 -2.000462 -1.581139 -1.581139 
C -2.000462 -1.161816 -2.236068 -0.593012 -2.236068 0 
C -2.236068 0.593012 -2.000462 1.161816 -1.581139 1.581139 
C -1.161816 2.000462 -0.593012 2.236068 0 2.236068 
z
" style="stroke: #800080"/>
    </defs>
    <g clip-path="url(#pd2645832be)">
     <use xlink:href="#m9e9925cd0b" x="244.819885" y="58.147993" style="fill: #800080; stroke: #800080"/>
     <use xlink:href="#m9e9925cd0b" x="244.817178" y="58.157232" style="fill: #800080; stroke: #800080"/>
     <use xlink:href="#m9e9925cd0b" x="244.813041" y="58.154847" style="fill: #800080; stroke: #800080"/>
     <use xlink:href="#m9e9925cd0b" x="244.81108" y="58.147131" style="fill: #800080; stroke: #800080"/>
     <use xlink:href="#m9e9925cd0b" x="244.799067" y="58.147933" style="fill: #800080; stroke: #800080"/>
     <use xlink:href="#m9e9925cd0b" x="244.769404" y="58.167391" style="fill: #800080; stroke: #800080"/>
     <use xlink:href="#m9e9925cd0b" x="244.741227" y="58.189553" style="fill: #800080; stroke: #800080"/>
     <use xlink:href="#m9e9925cd0b" x="244.745722" y="58.194453" style="fill: #800080; stroke: #800080"/>
     <use xlink:href="#m9e9925cd0b" x="244.806398" y="58.158963" style="fill: #800080; stroke: #800080"/>
     <use xlink:href="#m9e9925cd0b" x="244.860866" y="58.137805" style="fill: #800080; stroke: #800080"/>
     <use xlink:href="#m9e9925cd0b" x="244.86811" y="58.129256" style="fill: #800080; stroke: #800080"/>
     <use xlink:href="#m9e9925cd0b" x="244.824987" y="58.119273" style="fill: #800080; stroke: #800080"/>
     <use xlink:href="#m9e9925cd0b" x="244.767851" y="58.121775" style="fill: #800080; stroke: #800080"/>
    </g>
   </g>
   <g id="legend_1">
    <g id="line2d_24">
     <path d="M 251.678928 302.156406 
L 260.678928 302.156406 
L 269.678928 302.156406 
" style="fill: none; stroke: #1f77b4; stroke-width: 2; stroke-linecap: square"/>
    </g>
    <g id="text_19">
     <!-- camera trajectory -->
     <g transform="translate(276.878928 305.306406)scale(0.09 -0.09)">
      <use xlink:href="#DejaVuSans-63"/>
      <use xlink:href="#DejaVuSans-61" x="54.980469"/>
      <use xlink:href="#DejaVuSans-6d" x="116.259766"/>
      <use xlink:href="#DejaVuSans-65" x="213.671875"/>
      <use xlink:href="#DejaVuSans-72" x="275.195312"/>
      <use xlink:href="#DejaVuSans-61" x="316.308594"/>
      <use xlink:href="#DejaVuSans-20" x="377.587891"/>
      <use xlink:href="#DejaVuSans-74" x="409.375"/>
      <use xlink:href="#DejaVuSans-72" x="448.583984"/>
      <use xlink:href="#DejaVuSans-61" x="489.697266"/>
      <use xlink:href="#DejaVuSans-6a" x="550.976562"/>
      <use xlink:href="#DejaVuSans-65" x="578.759766"/>
      <use xlink:href="#DejaVuSans-63" x="640.283203"/>
      <use xlink:href="#DejaVuSans-74" x="695.263672"/>
      <use xlink:href="#DejaVuSans-6f" x="734.472656"/>
      <use xlink:href="#DejaVuSans-72" x="795.654297"/>
      <use xlink:href="#DejaVuSans-79" x="836.767578"/>
     </g>
    </g>
    <g id="PathCollection_5">
     <g>
      <use xlink:href="#m3f64dd71d9" x="260.678928" y="316.154219" style="fill: #008000; stroke: #008000"/>
     </g>
    </g>
    <g id="text_20">
     <!-- start -->
     <g transform="translate(276.878928 318.516719)scale(0.09 -0.09)">
      <use xlink:href="#DejaVuSans-73"/>
      <use xlink:href="#DejaVuSans-74" x="52.099609"/>
      <use xlink:href="#DejaVuSans-61" x="91.308594"/>
      <use xlink:href="#DejaVuSans-72" x="152.587891"/>
      <use xlink:href="#DejaVuSans-74" x="193.701172"/>
     </g>
    </g>
    <g id="PathCollection_6">
     <g>
      <use xlink:href="#mae17549749" x="260.678928" y="329.364531" style="fill: #ff0000; stroke: #ff0000"/>
     </g>
    </g>
    <g id="text_21">
     <!-- end -->
     <g transform="translate(276.878928 331.727031)scale(0.09 -0.09)">
      <use xlink:href="#DejaVuSans-65"/>
      <use xlink:href="#DejaVuSans-6e" x="61.523438"/>
      <use xlink:href="#DejaVuSans-64" x="124.902344"/>
     </g>
    </g>
    <g id="PathCollection_7">
     <g>
      <use xlink:href="#m1d7af28f36" x="260.678928" y="342.574844" style="fill: #ffa500; stroke: #ffa500"/>
     </g>
    </g>
    <g id="text_22">
     <!-- tags -->
     <g transform="translate(276.878928 344.937344)scale(0.09 -0.09)">
      <use xlink:href="#DejaVuSans-74"/>
      <use xlink:href="#DejaVuSans-61" x="39.208984"/>
      <use xlink:href="#DejaVuSans-67" x="100.488281"/>
      <use xlink:href="#DejaVuSans-73" x="163.964844"/>
     </g>
    </g>
    <g id="PathCollection_8">
     <g>
      <use xlink:href="#m9e9925cd0b" x="260.678928" y="355.785156" style="fill: #800080; stroke: #800080"/>
     </g>
    </g>
    <g id="text_23">
     <!-- sampled poses -->
     <g transform="translate(276.878928 358.147656)scale(0.09 -0.09)">
      <use xlink:href="#DejaVuSans-73"/>
      <use xlink:href="#DejaVuSans-61" x="52.099609"/>
      <use xlink:href="#DejaVuSans-6d" x="113.378906"/>
      <use xlink:href="#DejaVuSans-70" x="210.791016"/>
      <use xlink:href="#DejaVuSans-6c" x="274.267578"/>
      <use xlink:href="#DejaVuSans-65" x="302.050781"/>
      <use xlink:href="#DejaVuSans-64" x="363.574219"/>
      <use xlink:href="#DejaVuSans-20" x="427.050781"/>
      <use xlink:href="#DejaVuSans-70" x="458.837891"/>
      <use xlink:href="#DejaVuSans-6f" x="522.314453"/>
      <use xlink:href="#DejaVuSans-73" x="583.496094"/>
      <use xlink:href="#DejaVuSans-65" x="635.595703"/>
      <use xlink:href="#DejaVuSans-73" x="697.119141"/>
     </g>
    </g>
    <g id="patch_33">
     <path d="M 251.678928 371.357969 
L 269.678928 371.357969 
L 269.678928 365.057969 
L 251.678928 365.057969 
z
" style="fill: #ff0000; opacity: 0.9; stroke: #ff0000; stroke-linejoin: miter"/>
    </g>
    <g id="text_24">
     <!-- pose axis X -->
     <g transform="translate(276.878928 371.357969)scale(0.09 -0.09)">
      <defs>
       <path id="DejaVuSans-78" d="M 3513 3500 
L 2247 1797 
L 3578 0 
L 2900 0 
L 1881 1375 
L 863 0 
L 184 0 
L 1544 1831 
L 300 3500 
L 978 3500 
L 1906 2253 
L 2834 3500 
L 3513 3500 
z
" transform="scale(0.015625)"/>
      </defs>
      <use xlink:href="#DejaVuSans-70"/>
      <use xlink:href="#DejaVuSans-6f" x="63.476562"/>
      <use xlink:href="#DejaVuSans-73" x="124.658203"/>
      <use xlink:href="#DejaVuSans-65" x="176.757812"/>
      <use xlink:href="#DejaVuSans-20" x="238.28125"/>
      <use xlink:href="#DejaVuSans-61" x="270.068359"/>
      <use xlink:href="#DejaVuSans-78" x="331.347656"/>
      <use xlink:href="#DejaVuSans-69" x="390.527344"/>
      <use xlink:href="#DejaVuSans-73" x="418.310547"/>
      <use xlink:href="#DejaVuSans-20" x="470.410156"/>
      <use xlink:href="#DejaVuSans-58" x="502.197266"/>
     </g>
    </g>
    <g id="patch_34">
     <path d="M 251.678928 384.568281 
L 269.678928 384.568281 
L 269.678928 378.268281 
L 251.678928 378.268281 
z
" style="fill: #0000ff; opacity: 0.9; stroke: #0000ff; stroke-linejoin: miter"/>
    </g>
    <g id="text_25">
     <!-- pose axis Z -->
     <g transform="translate(276.878928 384.568281)scale(0.09 -0.09)">
      <defs>
       <path id="DejaVuSans-5a" d="M 359 4666 
L 4025 4666 
L 4025 4184 
L 1075 531 
L 4097 531 
L 4097 0 
L 288 0 
L 288 481 
L 3238 4134 
L 359 4134 
L 359 4666 
z
" transform="scale(0.015625)"/>
      </defs>
      <use xlink:href="#DejaVuSans-70"/>
      <use xlink:href="#DejaVuSans-6f" x="63.476562"/>
      <use xlink:href="#DejaVuSans-73" x="124.658203"/>
      <use xlink:href="#DejaVuSans-65" x="176.757812"/>
      <use xlink:href="#DejaVuSans-20" x="238.28125"/>
      <use xlink:href="#DejaVuSans-61" x="270.068359"/>
      <use xlink:href="#DejaVuSans-78" x="331.347656"/>
      <use xlink:href="#DejaVuSans-69" x="390.527344"/>
      <use xlink:href="#DejaVuSans-73" x="418.310547"/>
      <use xlink:href="#DejaVuSans-20" x="470.410156"/>
      <use xlink:href="#DejaVuSans-5a" x="502.197266"/>
     </g>
    </g>
   </g>
  </g>
 </g>
 <defs>
  <clipPath id="pd2645832be">
   <rect x="236.280415" y="25.44" width="11.567169" height="364.6"/>
  </clipPath>
 </defs>
</svg>
